<?xml version="1.0" standalone="no"?>
<!DOCTYPE svg PUBLIC "-//W3C//DTD SVG 20010904//EN"
 "http://www.w3.org/TR/2001/REC-SVG-20010904/DTD/svg10.dtd">
<svg version="1.0" xmlns="http://www.w3.org/2000/svg"
 width="512.000000pt" height="512.000000pt" viewBox="0 0 512.000000 512.000000"
 preserveAspectRatio="xMidYMid meet">

<g transform="translate(0.000000,512.000000) scale(0.100000,-0.100000)"
fill="#000000" stroke="none">
<path d="M1361 4898 c-317 -199 -626 -513 -826 -838 -372 -605 -473 -1372
-269 -2060 165 -558 509 -1035 994 -1377 536 -378 1223 -534 1880 -427 659
108 1246 468 1652 1014 64 86 161 240 155 246 -2 2 -49 -10 -104 -26 -275 -82
-486 -112 -798 -113 -249 -1 -399 16 -621 68 -935 221 -1684 915 -1982 1836
-93 286 -127 509 -126 829 1 317 32 535 115 802 17 55 29 101 27 102 -2 2 -45
-24 -97 -56z"/>
</g>
</svg>
