<?xml version="1.0" standalone="no"?>
<!DOCTYPE svg PUBLIC "-//W3C//DTD SVG 20010904//EN"
 "http://www.w3.org/TR/2001/REC-SVG-20010904/DTD/svg10.dtd">
<svg version="1.0" xmlns="http://www.w3.org/2000/svg"
 width="512.000000pt" height="512.000000pt" viewBox="0 0 512.000000 512.000000"
 preserveAspectRatio="xMidYMid meet">

<g transform="translate(0.000000,512.000000) scale(0.100000,-0.100000)"
fill="#000000" stroke="none">
<path d="M2309 4567 c-135 -298 -242 -543 -238 -545 4 -2 36 6 71 16 238 74
598 74 836 0 35 -10 67 -18 71 -16 8 3 -480 1088 -489 1088 -3 0 -116 -244
-251 -543z"/>
<path d="M768 4322 c313 -833 408 -1082 412 -1082 3 0 20 28 38 63 115 220
358 467 578 588 41 22 76 44 78 48 4 5 -244 100 -1076 413 l-48 18 18 -48z"/>
<path d="M3803 4157 c-309 -116 -559 -215 -557 -218 2 -4 37 -26 78 -48 220
-121 463 -368 578 -588 18 -35 35 -63 38 -63 4 0 98 248 412 1083 10 26 17 47
15 47 -1 -1 -255 -96 -564 -213z"/>
<path d="M2439 3790 c-510 -51 -939 -416 -1068 -907 -31 -117 -41 -196 -41
-323 0 -410 206 -794 551 -1023 209 -139 418 -200 679 -200 261 0 470 61 679
200 404 269 614 749 536 1230 -80 495 -475 905 -964 1002 -115 23 -268 32
-372 21z"/>
<path d="M553 2812 c-299 -136 -543 -249 -543 -252 0 -7 1092 -501 1097 -496
2 1 -6 32 -16 67 -47 153 -56 225 -55 439 1 209 12 293 58 443 8 26 12 47 8
46 -4 0 -251 -112 -549 -247z"/>
<path d="M4026 3013 c46 -150 57 -234 58 -443 1 -214 -8 -286 -55 -439 -10
-35 -18 -66 -16 -67 5 -5 1097 489 1097 496 0 4 -1047 482 -1091 498 -5 2 -2
-18 7 -45z"/>
<path d="M1170 1865 c-33 -85 -366 -971 -391 -1037 l-28 -77 77 28 c66 25 952
358 1036 391 l30 11 -79 45 c-260 148 -465 356 -602 609 l-32 60 -11 -30z"/>
<path d="M3913 1846 c-37 -75 -108 -179 -187 -274 -115 -136 -254 -251 -421
-346 l-79 -45 30 -11 c84 -33 970 -366 1036 -391 l77 -28 -28 77 c-119 321
-395 1048 -400 1055 -4 4 -17 -13 -28 -37z"/>
<path d="M2062 1101 c15 -42 494 -1091 498 -1091 7 0 501 1092 496 1097 -1 2
-55 -10 -119 -26 -245 -64 -509 -64 -754 -1 -129 34 -126 33 -121 21z"/>
</g>
</svg>
